<svg width="128" height="128" viewBox="0 0 128 128" fill="none" xmlns="http://www.w3.org/2000/svg">
<rect width="127.017" height="127.017" rx="30" fill="#FEB776"/>
<mask id="mask0_1_33" style="mask-type:luminance" maskUnits="userSpaceOnUse" x="0" y="0" width="128" height="128">
<rect width="127.017" height="127.017" rx="30" fill="white"/>
</mask>
<g mask="url(#mask0_1_33)">
<path fill-rule="evenodd" clip-rule="evenodd" d="M109.716 112.282C105.972 106.866 100.452 102.929 94.1117 101.153L79.3858 97.0275V86.443C85.6111 81.7667 89.6992 74.4078 89.9505 66.0836C90.8205 66.4671 91.7809 66.6845 92.7935 66.6845C96.6905 66.6845 99.85 63.5253 99.85 59.6279C99.85 55.7306 96.6905 52.5714 92.7935 52.5714C91.789 52.5714 90.8357 52.7842 89.9709 53.1624V51.1601C89.9709 36.5454 78.1234 24.6982 63.509 24.6982H63.5086C48.8942 24.6982 37.0471 36.5454 37.0471 51.1601V53.1624C36.1819 52.7842 35.2286 52.5714 34.2245 52.5714C30.3272 52.5714 27.1679 55.7306 27.1679 59.6279C27.1679 63.5253 30.3272 66.6845 34.2245 66.6845C35.2367 66.6845 36.1971 66.4675 37.0675 66.0836C37.3184 74.4078 41.4066 81.7667 47.6315 86.443V97.0275L32.906 101.153C26.5657 102.929 21.0457 106.866 17.3015 112.282L7.05688 127.102L7.05688 137.602H119.961V127.102L109.716 112.282Z" fill="#F5CDD3"/>
<path fill-rule="evenodd" clip-rule="evenodd" d="M63.5087 91.7349C60.2457 91.7349 57.1225 91.1408 54.2364 90.0608C58.3412 92.683 63.2158 94.2047 68.4482 94.2047C72.3505 94.2047 76.0513 93.3533 79.3858 91.8372V86.4429C74.9632 89.7651 69.4661 91.7349 63.5087 91.7349Z" fill="#F48C9D"/>
<path d="M37.9674 60.6577C38.0574 60.3299 38.1057 59.9845 38.1057 59.6281C38.1057 57.4847 36.3681 55.747 34.2247 55.747C33.6887 55.747 33.1782 55.8557 32.7139 56.0519" stroke="#00004D" stroke-linecap="round" stroke-linejoin="round"/>
<path d="M89.0505 60.6577C88.9605 60.3299 88.9125 59.9845 88.9125 59.6281C88.9125 57.4847 90.6502 55.747 92.7936 55.747C93.3292 55.747 93.8397 55.8557 94.3044 56.0519" stroke="#00004D" stroke-linecap="round" stroke-linejoin="round"/>
<path fill-rule="evenodd" clip-rule="evenodd" d="M70.5651 75.508C70.5651 79.4053 67.4059 82.5645 63.5086 82.5645C59.6113 82.5645 56.4521 79.4053 56.4521 75.508H70.5651Z" fill="white"/>
<path fill-rule="evenodd" clip-rule="evenodd" d="M77.9747 60.6856C77.9747 62.2444 76.7109 63.5082 75.1521 63.5082C73.5933 63.5082 72.3295 62.2444 72.3295 60.6856C72.3295 59.1268 73.5933 57.863 75.1521 57.863C76.7109 57.863 77.9747 59.1268 77.9747 60.6856" fill="#00004D"/>
<path fill-rule="evenodd" clip-rule="evenodd" d="M54.6881 60.6856C54.6881 62.2444 53.4242 63.5082 51.8655 63.5082C50.3067 63.5082 49.0428 62.2444 49.0428 60.6856C49.0428 59.1268 50.3067 57.863 51.8655 57.863C53.4242 57.863 54.6881 59.1268 54.6881 60.6856" fill="#00004D"/>
<path d="M63.5087 57.863L67.0369 69.8591L62.0974 70.5647" stroke="#00004D" stroke-linecap="round" stroke-linejoin="round"/>
<path fill-rule="evenodd" clip-rule="evenodd" d="M87.9118 54.5394C88.9386 53.5543 90.2613 52.8811 91.7347 52.6588V51.1596V38.7127C91.7347 33.3667 88.7142 28.48 83.9334 26.0893L66.6643 17.4553C64.6776 16.4617 62.3394 16.4617 60.353 17.4553L43.0839 26.0893C38.3031 28.48 35.2826 33.3667 35.2826 38.7127V52.6588C36.756 52.8811 38.0787 53.5543 39.1055 54.5394V54.3862C39.1055 50.8887 40.6646 47.5728 43.3584 45.3419C47.0296 42.3009 52.1748 41.7808 56.3802 44.0255C60.8349 46.4032 66.1824 46.4032 70.6371 44.0255C74.8425 41.7808 79.9877 42.3009 83.6589 45.3419C86.3527 47.5728 87.9118 50.8887 87.9118 54.3862V54.5394Z" fill="#7F553F"/>
<path fill-rule="evenodd" clip-rule="evenodd" d="M119.96 127.102L109.715 112.282C105.972 106.866 100.452 102.929 94.111 101.152L93.3309 100.934L90.1752 94.8086C89.3983 93.3003 88.1041 92.1226 86.5295 91.491L79.3855 88.625V97.1119C79.3844 97.114 79.3841 97.1154 79.383 97.1175L63.5986 112.902C63.5683 112.902 63.5387 112.904 63.5083 112.904L47.6312 97.0272V88.5368L40.4871 91.4032C38.9125 92.0347 37.6183 93.2125 36.8414 94.7204L33.6328 100.949L32.9053 101.152C26.565 102.929 21.045 106.866 17.3009 112.282L7.05621 127.102L7.05621 137.602H119.96V127.102Z" fill="#80C43B"/>
<path d="M33.6329 100.949L63.5084 118.24L85.1334 105.788" stroke="#00004D" stroke-linecap="round" stroke-linejoin="round"/>
<path fill-rule="evenodd" clip-rule="evenodd" d="M55.3933 132.353V132.353C54.8087 132.353 54.3348 131.879 54.3348 131.295V112.958L56.4518 114.156V131.295C56.4518 131.879 55.9779 132.353 55.3933 132.353" fill="#00004D"/>
<path fill-rule="evenodd" clip-rule="evenodd" d="M71.6233 124.944V124.944C71.0387 124.944 70.5648 124.47 70.5648 123.885V114.177L72.6818 112.958V123.885C72.6818 124.47 72.2079 124.944 71.6233 124.944" fill="#00004D"/>
<path d="M44.8086 94.2045L47.6312 97.0271" stroke="#00004D" stroke-linecap="round" stroke-linejoin="round"/>
<path fill-rule="evenodd" clip-rule="evenodd" d="M80.4547 53.6294H69.8699C68.3235 53.6294 67.0127 54.6258 66.5364 56.0103C66.0844 55.4218 65.3767 55.0407 64.5775 55.0407H62.2739C61.4751 55.0407 60.7666 55.4218 60.3154 56.0103C59.8384 54.6258 58.528 53.6294 56.9815 53.6294H46.3968C44.4481 53.6294 42.8685 55.2094 42.8685 57.1577V59.6274C42.8685 64.4993 46.8177 68.4481 51.6891 68.4481C56.5606 68.4481 60.5098 64.4993 60.5098 59.6274C60.5098 58.2634 61.6155 57.1577 62.9796 57.1577H63.8719C65.2359 57.1577 66.3416 58.2634 66.3416 59.6274C66.3416 64.4993 70.2905 68.4481 75.1623 68.4481C80.0337 68.4481 83.9829 64.4993 83.9829 59.6274V57.1577C83.9829 55.2094 82.403 53.6294 80.4547 53.6294" fill="#000066"/>
</g>
</svg>
