<svg width="265" height="234" viewBox="0 0 265 234" fill="none" xmlns="http://www.w3.org/2000/svg">
<path d="M206.299 151.277C220.024 151.277 231.15 141.485 231.15 129.405C231.15 117.326 220.024 107.534 206.299 107.534C192.575 107.534 181.448 117.326 181.448 129.405C181.448 141.485 192.575 151.277 206.299 151.277Z" fill="#EAECEE"/>
<path d="M76.8362 158.591C109.439 158.591 135.868 132.569 135.868 100.469C135.868 68.3692 109.439 42.3472 76.8362 42.3472C44.2338 42.3472 17.8044 68.3692 17.8044 100.469C17.8044 132.569 44.2338 158.591 76.8362 158.591Z" fill="#EAECEE"/>
<path d="M85.8274 41.4375C91.8929 53.1225 91.1794 60.3655 80.4755 69.6243C69.7716 78.8832 82.0276 88.4631 92.9633 90.4255" stroke="#FEB55B" stroke-width="0.5" stroke-miterlimit="10"/>
<path d="M121.703 104.108C113.59 105.698 105.176 104.25 98.0606 100.04C90.9457 95.8293 85.6267 89.1504 83.1157 81.2736C82.2165 78.8164 81.9407 76.1746 82.3129 73.5846C84.8283 62.2742 95.55 62.3456 89.6807 51.1422C82.8659 38.1013 80.5646 27.6829 91.0187 18.6738C95.0683 15.1059 94.7472 9.75397 102.543 5.47243C104.327 4.45556 106.111 4.63396 107.128 3.84901C120.026 -7.0154 133.388 8.04135 135.547 13.1792C135.946 14.1787 136.621 15.0444 137.492 15.6759C138.364 16.3075 139.396 16.6789 140.47 16.7472C144.449 16.6596 148.385 17.5672 151.924 19.3874C157.4 22.331 162.128 28.3073 163.038 33.0884C163.238 34.1496 163.674 35.1524 164.313 36.023C164.952 36.8937 165.778 37.6099 166.731 38.1192C169.835 39.7961 191.546 52.2483 188.406 71.0514C185.801 86.7325 183.821 94.3501 183.821 94.3501C183.821 94.3501 144.395 99.7734 121.703 104.108Z" fill="#FEB55B"/>
<path d="M134.78 58.3852C134.78 58.3852 166.499 55.1563 186.337 73.995C206.174 92.8338 209.154 202.441 221.552 212.86C233.951 223.278 249.561 220.888 242.371 223.278C240.891 223.778 44.3499 236.069 34.3597 217.248C21.1761 192.558 54.4294 209.149 61.7972 191.595C70.057 171.971 77.6924 146.621 72.84 128.103C62.1362 87.1786 75.5695 77.0991 113.497 63.5945" fill="white"/>
<path d="M134.78 58.3852C134.78 58.3852 166.499 55.1563 186.337 73.995C206.174 92.8338 209.154 202.441 221.552 212.86C233.951 223.278 249.561 220.888 242.371 223.278C240.891 223.778 44.3499 236.069 34.3597 217.248C21.1761 192.558 54.4294 209.149 61.7972 191.595C70.057 171.971 77.6924 146.621 72.84 128.103C62.1362 87.1786 75.5695 77.0991 113.497 63.5945" stroke="#252D3B" stroke-width="0.5" stroke-miterlimit="10" stroke-linecap="round"/>
<path d="M189.494 231.252H72.8757C73.0898 227.31 86.9513 221.084 87.1475 217.32C88.9315 190.096 78.1384 170.258 82.1167 160.125L176.239 166.744C181.136 184.15 184.967 201.838 187.71 219.71C188.156 223.421 188.816 227.274 189.494 231.252Z" fill="#252D3B"/>
<path d="M104.523 24.0435C102.74 29.0387 93.6234 27.2012 95.1755 33.124C96.1567 36.9417 96.1745 34.9079 97.0844 40.8664C99.0646 53.6932 110.036 58.5456 119.652 50.714C129.267 42.8823 129.963 39.8852 123.773 26.327C121.489 21.3497 118.867 20.6718 116.797 21.2427C115.749 21.5662 114.637 21.6297 113.559 21.4277C112.48 21.2257 111.467 20.7642 110.607 20.0831C108.876 18.6737 106.557 18.4775 104.523 24.0435Z" fill="white"/>
<path d="M101.544 43.5424C101.937 44.4522 102.615 45.0409 103.061 44.8447C103.507 44.6484 103.578 43.7565 103.185 42.8466C102.793 41.9368 102.115 41.3481 101.669 41.5265C101.223 41.7049 101.152 42.579 101.544 43.5424Z" fill="#252D3B"/>
<path d="M113.747 40.3313C113.889 41.2947 114.425 42.1153 114.924 42.1153C115.424 42.1153 115.709 41.2768 115.548 40.3313C115.388 39.3858 114.871 38.5474 114.371 38.5474C113.871 38.5474 113.586 39.368 113.747 40.3313Z" fill="#252D3B"/>
<path d="M111.552 54.4784C113.574 57.8467 114.273 61.8452 113.515 65.6996C113.515 65.6996 126.877 73.7453 134.78 58.3853C134.78 58.3853 128.375 44.1135 127.073 35.925C127.055 35.925 112.373 52.9799 111.552 54.4784Z" fill="white"/>
<path d="M111.552 54.4783C115.454 53.4629 118.949 51.2703 121.56 48.1987C125.985 43.0251 122.702 57.1185 113.497 60.4724C113.303 58.3544 112.639 56.3065 111.552 54.4783Z" fill="#252D3B"/>
<path d="M99.992 33.1599C98.4453 33.7106 97.0556 34.6289 95.9424 35.8358C94.4439 37.6555 96.5311 30.3233 99.992 33.1599Z" fill="#252D3B"/>
<path d="M111.338 29.3955C113.436 29.3898 115.533 29.5029 117.618 29.7345C119.223 30.0913 113.782 24.7393 111.338 29.3955Z" fill="#252D3B"/>
<path d="M123.648 31.572C123.648 31.572 125.253 27.1298 128.589 26.4519C131.925 25.774 133.477 35.9962 126.306 36.8347C119.134 37.6731 123.648 31.572 123.648 31.572Z" fill="white"/>
<path d="M126.609 37.2271C126.831 37.7582 127.205 38.2115 127.685 38.5296C128.165 38.8477 128.728 39.0163 129.304 39.014C129.879 39.0117 130.441 38.8386 130.918 38.5167C131.396 38.1948 131.767 37.7385 131.984 37.2057C132.202 36.6728 132.256 36.0874 132.141 35.5234C132.026 34.9595 131.746 34.4425 131.336 34.0379C130.927 33.6333 130.407 33.3593 129.841 33.2506C129.276 33.1419 128.691 33.2033 128.161 33.4272C127.452 33.7265 126.891 34.2944 126.6 35.0066C126.309 35.7188 126.312 36.5172 126.609 37.2271Z" fill="#252D3B"/>
<path d="M126.413 31.8752C126.4 31.1443 126.613 30.4273 127.021 29.821C127.43 29.2148 128.014 28.7486 128.696 28.4856" stroke="#252D3B" stroke-width="0.5" stroke-miterlimit="10" stroke-linecap="round"/>
<path d="M101.901 46.8785C105.28 46.8785 108.02 44.1389 108.02 40.7594C108.02 37.38 105.28 34.6404 101.901 34.6404C98.5216 34.6404 95.782 37.38 95.782 40.7594C95.782 44.1389 98.5216 46.8785 101.901 46.8785Z" stroke="#252D3B" stroke-width="0.5" stroke-miterlimit="10" stroke-linecap="round"/>
<path d="M109.322 37.2272C109.322 38.4374 109.681 39.6205 110.354 40.6267C111.026 41.633 111.982 42.4173 113.1 42.8804C114.218 43.3436 115.448 43.4648 116.635 43.2287C117.822 42.9925 118.912 42.4098 119.768 41.554C120.624 40.6982 121.207 39.6079 121.443 38.421C121.679 37.234 121.558 36.0036 121.095 34.8855C120.631 33.7674 119.847 32.8118 118.841 32.1394C117.835 31.467 116.652 31.1082 115.441 31.1082C113.818 31.1082 112.262 31.7528 111.115 32.9004C109.967 34.0479 109.322 35.6043 109.322 37.2272Z" stroke="#252D3B" stroke-width="0.5" stroke-miterlimit="10" stroke-linecap="round"/>
<path d="M211.526 216.659C214.752 219.449 218.61 221.409 222.765 222.368L211.526 216.659Z" fill="white"/>
<path d="M211.526 216.659C214.752 219.449 218.61 221.409 222.765 222.368" stroke="#252D3B" stroke-width="0.5" stroke-miterlimit="10" stroke-linecap="round"/>
<path d="M186.426 209.256C186.426 209.256 190.457 219.781 199.574 222.582L186.426 209.256Z" fill="white"/>
<path d="M186.426 209.256C186.426 209.256 190.457 219.781 199.574 222.582" stroke="#252D3B" stroke-width="0.5" stroke-miterlimit="10" stroke-linecap="round"/>
<path d="M141.63 58.7419C140.082 63.1435 137.442 67.0797 133.956 70.1814C130.471 73.2831 126.255 75.4485 121.703 76.4747C106.183 80.2924 108.484 65.4319 108.484 65.4319" stroke="#252D3B" stroke-width="0.5" stroke-miterlimit="10" stroke-linecap="round"/>
<path d="M115.566 45.7546C115.587 46.5482 115.315 47.3216 114.801 47.9271C114.288 48.5326 113.569 48.9278 112.783 49.0372" fill="white"/>
<path d="M115.566 45.7546C115.587 46.5482 115.315 47.3216 114.801 47.9271C114.288 48.5326 113.569 48.9278 112.783 49.0372" stroke="#252D3B" stroke-width="0.5" stroke-miterlimit="10" stroke-linecap="round"/>
<path d="M120.651 33.7841C120.651 33.7841 124.325 26.1308 129.338 26.1844L120.651 33.7841Z" fill="white"/>
<path d="M120.651 33.7841C120.651 33.7841 124.325 26.1308 129.338 26.1844" stroke="#252D3B" stroke-width="0.5" stroke-miterlimit="10" stroke-linecap="round"/>
<path d="M107.717 38.2263L109.376 37.709" stroke="#252D3B" stroke-width="0.5" stroke-miterlimit="10" stroke-linecap="round"/>
<path d="M106.736 17.7104C106.736 17.7104 112.694 27.8078 123.612 20.5291" stroke="#FEB55B" stroke-width="0.5" stroke-miterlimit="10"/>
<path d="M95.9426 12.1265C95.9426 12.1265 95.9426 16.4258 84.2754 21.6529C72.6082 26.8799 74.1602 43.0606 81.2069 43.7385" stroke="#FEB55B" stroke-width="0.5" stroke-miterlimit="10"/>
<path d="M181.038 196.518H217.699C218.01 196.518 218.317 196.448 218.597 196.313C218.877 196.178 219.124 195.981 219.317 195.738C219.511 195.494 219.647 195.21 219.716 194.907C219.785 194.603 219.784 194.288 219.715 193.985L218.341 188.045C218.23 187.588 217.969 187.183 217.601 186.892C217.232 186.601 216.777 186.441 216.307 186.439H181.038V196.518Z" fill="#252D3B"/>
<path d="M171.512 109.639C171.512 109.639 166.16 129.423 176.293 166.726L171.512 109.639Z" fill="white"/>
<path d="M171.512 109.639C171.512 109.639 166.16 129.423 176.293 166.726" stroke="#252D3B" stroke-width="0.5" stroke-miterlimit="10" stroke-linecap="round"/>
<path d="M159.541 182.71H22.8352C21.5609 182.695 20.3313 182.239 19.3556 181.419C18.3798 180.6 17.7182 179.467 17.4832 178.215L3.38981 103.038C3.24104 102.248 3.26736 101.435 3.4669 100.657C3.66644 99.8782 4.03434 99.1529 4.54467 98.532C5.055 97.9111 5.69534 97.4097 6.42052 97.0632C7.1457 96.7167 7.93805 96.5335 8.74174 96.5265H145.448C146.72 96.5376 147.95 96.9901 148.926 97.8067C149.902 98.6234 150.564 99.7536 150.8 101.004L164.893 176.199C165.042 176.989 165.016 177.802 164.816 178.58C164.617 179.359 164.249 180.084 163.738 180.705C163.228 181.326 162.588 181.827 161.862 182.174C161.137 182.52 160.345 182.703 159.541 182.71Z" fill="white" stroke="#252D3B" stroke-width="0.5" stroke-miterlimit="10" stroke-linecap="round"/>
<path d="M110.803 221.672H84.0435L70.9134 152.097C70.8034 151.51 70.824 150.906 70.974 150.327C71.1239 149.749 71.3994 149.211 71.7808 148.751C72.1623 148.291 72.6405 147.921 73.1812 147.667C73.722 147.413 74.312 147.281 74.9095 147.281H93.3201C94.2695 147.278 95.1899 147.608 95.9203 148.215C96.6507 148.821 97.1448 149.665 97.3162 150.599L110.803 221.672Z" fill="#FEB55B"/>
<path d="M32.3437 224.17C33.0298 219.476 35.341 215.171 38.8748 212.006C42.4085 208.84 46.9408 207.015 51.682 206.848C69.3077 205.403 70.4672 221.869 70.4672 221.869" fill="white"/>
<path d="M32.3437 224.17C33.0298 219.476 35.341 215.171 38.8748 212.006C42.4085 208.84 46.9408 207.015 51.682 206.848C69.3077 205.403 70.4672 221.869 70.4672 221.869" stroke="#252D3B" stroke-width="0.5" stroke-miterlimit="10" stroke-linecap="round"/>
<path d="M264.885 227.916C264.887 228.716 264.732 229.508 264.427 230.247C264.122 230.986 263.674 231.658 263.108 232.223C262.543 232.789 261.872 233.237 261.132 233.541C260.393 233.846 259.601 234.002 258.802 234H6.0836C5.28274 234.007 4.48846 233.854 3.74717 233.551C3.00588 233.248 2.33243 232.8 1.76611 232.234C1.19979 231.668 0.751954 230.994 0.448765 230.253C0.145577 229.512 -0.00690072 228.717 0.000239665 227.916C0.000239665 226.303 0.64116 224.756 1.78201 223.615C2.92286 222.474 4.4702 221.833 6.0836 221.833H258.802C259.601 221.831 260.393 221.986 261.132 222.291C261.872 222.596 262.543 223.044 263.108 223.61C263.674 224.175 264.122 224.846 264.427 225.586C264.732 226.325 264.887 227.117 264.885 227.916Z" fill="#EAECEE"/>
<path d="M125.628 221.369H66.9173C66.4651 221.369 66.0174 221.28 65.5996 221.107C65.1819 220.934 64.8023 220.68 64.4826 220.361C64.1629 220.041 63.9093 219.661 63.7363 219.244C63.5632 218.826 63.4742 218.378 63.4742 217.926C63.4718 217.473 63.5592 217.025 63.7314 216.606C63.9036 216.187 64.1572 215.806 64.4774 215.486C64.7975 215.166 65.178 214.913 65.5968 214.74C66.0156 214.568 66.4644 214.481 66.9173 214.483H125.628C126.541 214.483 127.417 214.846 128.063 215.492C128.708 216.137 129.071 217.013 129.071 217.926C129.066 218.838 128.702 219.711 128.057 220.356C127.413 221 126.54 221.365 125.628 221.369Z" fill="white" stroke="#252D3B" stroke-width="0.5" stroke-miterlimit="10" stroke-linecap="round"/>
<path d="M196.202 191.024C196.202 196.518 199.609 200.978 203.82 200.978C208.03 200.978 211.437 196.518 211.437 191.024C211.437 185.529 208.03 181.069 203.82 181.069C199.609 181.069 196.202 185.529 196.202 191.024Z" fill="#FEB55B"/>
<path d="M114.906 75.4578C112.052 78.7225 111.766 83.1468 114.282 85.341C116.797 87.5353 121.15 86.6969 124.004 83.4322C126.859 80.1675 127.144 75.7611 124.629 73.549C122.113 71.3368 117.76 72.211 114.906 75.4578Z" fill="#252D3B"/>
</svg>
