<svg width="222" height="262" viewBox="0 0 222 262" fill="none" xmlns="http://www.w3.org/2000/svg">
<path d="M172.603 65.4655C198.393 83.7192 170.367 154.132 98.2577 134.857C50.4934 122.289 56.064 156.869 26.939 133.565C-27.1669 90.0801 5.44698 4.28554 78.4041 0.334101C158.339 -3.98357 128.674 34.4129 172.603 65.4655Z" fill="#2E3D51" fill-opacity="0.1"/>
<path d="M198.412 133.218H193.863V261.553H198.412V133.218Z" fill="#252D3B"/>
<path d="M159.553 127.185C159.553 127.185 169.191 128.978 175.109 124.698C176.442 123.649 178.114 123.124 179.808 123.223C181.502 123.322 183.101 124.039 184.303 125.238C184.493 125.428 184.673 125.628 184.843 125.836C185.028 126.071 185.266 126.259 185.537 126.386C185.808 126.513 186.105 126.576 186.404 126.568C186.759 126.58 187.11 126.492 187.419 126.317C187.728 126.141 187.982 125.883 188.153 125.572C188.325 125.261 188.407 124.909 188.391 124.554C188.375 124.199 188.261 123.855 188.062 123.561C185.589 119.137 181.565 115.785 176.766 114.155C167.919 111.206 158.512 114.887 158.512 114.887C159.87 118.838 160.228 123.063 159.553 127.185Z" fill="white" stroke="#252D3B" stroke-width="0.5" stroke-miterlimit="10" stroke-linecap="round"/>
<path d="M173.297 161.322C173.146 153.326 169.869 145.707 164.17 140.098C158.47 134.488 150.8 131.334 142.803 131.31C142.206 131.31 141.627 131.31 141.049 131.31H113.447V148.658H115.047C112.797 153.337 111.775 158.511 112.076 163.694C112.377 168.877 113.991 173.898 116.767 178.285C119.543 182.673 123.389 186.282 127.943 188.773C132.498 191.265 137.612 192.557 142.803 192.528H143.478V197.521H173.509V161.322H173.297Z" fill="white" stroke="#252D3B" stroke-width="0.5" stroke-miterlimit="10" stroke-linecap="round"/>
<path d="M121.157 206.002H45.9831C39.9608 205.986 34.1904 203.583 29.9374 199.32C25.6844 195.056 23.296 189.279 23.296 183.257V116.911C23.3288 104.59 28.2053 92.7758 36.8728 84.0187C45.5404 75.2616 57.3038 70.2639 69.6241 70.1045C81.9443 69.9451 93.8331 74.6367 102.724 83.1666C111.616 91.6965 116.796 103.381 117.148 115.697C118.15 155.211 121.157 206.002 121.157 206.002Z" fill="white" stroke="#252D3B" stroke-width="0.5" stroke-miterlimit="10" stroke-linecap="round"/>
<path d="M120.501 40.2535C116.646 36.5333 108.185 36.2442 103.154 41.1209C101.508 42.8026 100.239 44.8155 99.4315 47.0255C98.6239 49.2356 98.296 51.5924 98.4698 53.939L90.1235 66.3523C90.1235 66.3523 100.108 72.1349 108.242 71.1133C108.01 68.8573 108.51 66.5865 109.669 64.6368C110.156 64.8856 110.688 65.0358 111.234 65.0788C111.78 65.1218 112.329 65.0567 112.849 64.8874C115.551 63.5986 117.631 61.29 118.632 58.4687C118.632 58.4687 120.559 59.5674 120.964 59.0469C121.369 58.5265 120.54 55.3461 121.677 53.168C122.815 50.9898 124.357 43.9543 120.501 40.2535Z" fill="white" stroke="#252D3B" stroke-width="0.5" stroke-miterlimit="10" stroke-linecap="round"/>
<path d="M98.2385 56.4639C98.0218 56.7038 97.7336 56.8674 97.4166 56.9306C97.0996 56.9938 96.7707 56.9532 96.4786 56.8147C96.1866 56.6763 95.9469 56.4473 95.7952 56.1619C95.6434 55.8765 95.5877 55.5498 95.6363 55.2303C95.8061 53.7058 95.8061 52.1672 95.6363 50.6427C94.6147 43.2796 100.397 30.7892 113.254 32.2734C124.491 33.5455 125.262 41.6797 122.892 44.2819C122.64 44.5302 122.308 44.6818 121.956 44.71C121.603 44.7382 121.252 44.6412 120.964 44.4361C117.043 41.4012 112.15 39.9003 107.201 40.2148C106.907 40.2515 106.63 40.3758 106.406 40.5717C106.183 40.7676 106.023 41.026 105.949 41.3135C105.081 44.0313 102.653 51.8764 98.2385 56.4639Z" fill="#252D3B"/>
<path d="M109.187 51.7608C109.187 51.7608 110.151 47.6937 106.893 47.5395C103.636 47.3853 103.038 53.9968 105.563 54.4208C108.088 54.8449 109.187 51.7608 109.187 51.7608Z" fill="white"/>
<path d="M107.953 51.9725C107.953 51.9725 108.898 49.486 106.257 49.3896L107.953 51.9725Z" fill="white"/>
<path d="M107.953 51.9725C107.953 51.9725 108.898 49.486 106.257 49.3896" stroke="#252D3B" stroke-width="0.5" stroke-miterlimit="10" stroke-linecap="round"/>
<path d="M117.456 53.7845C117.456 54.3627 117.591 54.8446 117.88 54.8832C118.169 54.9217 118.439 54.4591 118.497 53.8808C118.555 53.3026 118.362 52.8207 118.092 52.8014C117.822 52.7821 117.514 53.2062 117.456 53.7845Z" fill="#252D3B"/>
<path d="M116.897 51.5679C117.578 51.4373 118.278 51.4373 118.959 51.5679C120.116 51.8185 120.116 50.3921 118.535 50.4307C116.955 50.4693 116.338 51.5487 116.897 51.5679Z" fill="#252D3B"/>
<path d="M110.035 64.4053C110.035 64.4053 105.524 61.8802 105.1 62.4777C104.676 63.0753 107.548 68.8771 108.454 68.2603C108.617 66.8546 109.164 65.5209 110.035 64.4053Z" fill="#252D3B"/>
<path d="M115.066 61.0708C115.118 61.3596 115.248 61.6288 115.442 61.8494C115.635 62.0701 115.885 62.2341 116.164 62.3237" fill="white"/>
<path d="M115.066 61.0708C115.118 61.3596 115.248 61.6288 115.442 61.8494C115.635 62.0701 115.885 62.2341 116.164 62.3237" stroke="#252D3B" stroke-width="0.5" stroke-miterlimit="10" stroke-linecap="round"/>
<path d="M81.4112 206.079H73.1421V248.446H81.4112V206.079Z" fill="#252D3B"/>
<path d="M52.3825 259.51C54.8842 259.51 56.9122 257.482 56.9122 254.981C56.9122 252.479 54.8842 250.451 52.3825 250.451C49.8808 250.451 47.8528 252.479 47.8528 254.981C47.8528 257.482 49.8808 259.51 52.3825 259.51Z" fill="#252D3B"/>
<path d="M101.457 259.51C103.959 259.51 105.987 257.482 105.987 254.981C105.987 252.479 103.959 250.451 101.457 250.451C98.9558 250.451 96.9277 252.479 96.9277 254.981C96.9277 257.482 98.9558 259.51 101.457 259.51Z" fill="#252D3B"/>
<path d="M51.5729 254.981H100.629" stroke="#252D3B" stroke-width="0.5" stroke-miterlimit="10" stroke-linecap="round"/>
<path d="M66.3956 253.959V251.8C66.3956 250.735 66.8174 249.713 67.5687 248.958C68.3201 248.203 69.3398 247.777 70.4049 247.772H84.4181C86.6347 247.772 88.4273 251.897 88.4273 251.8V254.055" stroke="#252D3B" stroke-width="0.5" stroke-miterlimit="10" stroke-linecap="round"/>
<path d="M160.324 126.472C160.324 126.472 132.761 127.339 127.556 126.029C122.352 124.718 105.332 112.536 105.332 112.536C105.332 112.536 92.6872 115.504 93.5931 126.221C94.5183 137.42 95.6748 168.203 95.6748 168.203L52.1511 164.984C52.1511 164.984 52.4403 149.564 54.0787 130.828C54.1191 130.9 54.1712 130.966 54.2329 131.021C54.2329 131.021 54.2329 130.211 54.5027 128.766C55.5629 120.94 59.8998 94.6098 72.795 78.033C75.3066 74.6993 78.3244 71.7791 81.7388 69.3784C86.4128 66.25 92.0512 64.8959 97.6362 65.5604C103.221 66.225 108.384 68.8644 112.194 73.0021L126.033 87.767L141.222 103.978L158.223 112.208C168.767 116.217 160.324 126.472 160.324 126.472Z" fill="#252D3B"/>
<path d="M180.39 258.084L125.687 257.217L123.219 245.825L122.044 240.351C121.735 238.982 121.388 237.652 120.983 236.303C116.261 220.613 113.177 197.752 116.261 185.744C110.686 187.747 104.834 188.872 98.9132 189.078C84.1868 189.078 62.5213 186.553 54.5799 172.598C46.6385 158.642 53.8282 140.543 53.8282 140.543C53.8282 140.543 115.818 131.059 133.667 137.112C158.166 145.42 166.994 175.431 183.397 186.919C180.354 191.359 179.095 196.782 179.87 202.108C180.833 210.05 174.588 216.7 170.483 220.15C163.639 214.488 157.778 207.734 153.135 200.162C153.135 200.162 150.802 219.861 155.486 233.566C156.641 237.551 158.94 241.11 162.098 243.801C171.003 250.489 179.214 250.489 180.39 258.084Z" fill="#FEB55B"/>
<path d="M153.732 199.641C153.732 199.641 162.233 160.782 141.55 160.435C119.037 160.05 116.82 177.783 94.7111 177.783" stroke="#252D3B" stroke-width="0.5" stroke-miterlimit="10" stroke-linecap="round"/>
<path d="M54.0979 131.117H39.2559" stroke="#252D3B" stroke-width="0.5" stroke-miterlimit="10" stroke-linecap="round"/>
<path d="M93.9594 161.322C93.8029 153.308 90.5091 145.675 84.7856 140.063C79.0621 134.451 71.3657 131.308 63.3501 131.31C62.7719 131.31 62.1936 131.31 61.6154 131.31H34.1095V148.658H35.7093C33.4906 153.323 32.4888 158.474 32.7973 163.631C33.1058 168.788 34.7146 173.783 37.4738 178.151C40.2329 182.519 44.0527 186.117 48.5773 188.611C53.1018 191.105 58.1839 192.412 63.3501 192.413H64.0441V197.405H94.075V161.322H93.9594Z" fill="white"/>
<path d="M115.991 186.013C117.823 184.08 119.852 182.342 122.044 180.828" stroke="#252D3B" stroke-width="0.5" stroke-miterlimit="10" stroke-linecap="round"/>
<path d="M204.638 125.99L217.148 92.6244C217.307 92.1585 217.282 91.6492 217.078 91.2012C216.874 90.7531 216.506 90.4003 216.049 90.215L215.24 89.9066C214.771 89.7416 214.257 89.7638 213.805 89.9685C213.352 90.1732 212.996 90.5446 212.811 91.0053L201.419 121.383C201.278 121.739 201.033 122.044 200.718 122.261C200.402 122.477 200.029 122.594 199.646 122.598H165.933C165.422 122.598 164.932 122.801 164.57 123.162C164.209 123.524 164.006 124.014 164.006 124.525C164.006 125.036 164.209 125.527 164.57 125.888C164.932 126.25 165.422 126.453 165.933 126.453H204.484L204.638 125.99Z" fill="#252D3B"/>
<path d="M176.381 117.817C179.609 118.973 182.47 120.969 184.669 123.6L176.381 117.817Z" fill="white"/>
<path d="M176.381 117.817C179.609 118.973 182.47 120.969 184.669 123.6" stroke="#252D3B" stroke-width="0.5" stroke-miterlimit="10" stroke-linecap="round"/>
<path d="M174.472 119.34C176.622 120.256 178.582 121.564 180.255 123.195L174.472 119.34Z" fill="white"/>
<path d="M174.472 119.34C176.622 120.256 178.582 121.564 180.255 123.195" stroke="#252D3B" stroke-width="0.5" stroke-miterlimit="10" stroke-linecap="round"/>
<path d="M93.8823 188.558V205.674" stroke="#252D3B" stroke-width="0.5" stroke-miterlimit="10" stroke-linecap="round"/>
<path d="M219.018 194.186L176.419 224.795C176.419 224.795 171.041 220.612 167.553 217.644C171.658 214.194 180.833 210.05 179.87 202.108C179.095 196.782 180.354 191.359 183.397 186.919C185.799 188.682 188.503 189.988 191.377 190.774C194.023 191.413 196.771 191.505 199.453 191.044C203.366 190.369 212.194 189.656 219.018 194.186Z" fill="white" stroke="#252D3B" stroke-width="0.5" stroke-miterlimit="10" stroke-linecap="round"/>
<path d="M180.39 258.084L125.687 257.216L123.219 245.825C128.096 246.307 138.64 246.904 144.615 243.666C150.59 240.428 151.092 235.609 155.563 233.566C156.718 237.551 159.017 241.11 162.175 243.801C171.003 250.489 179.214 250.489 180.39 258.084Z" fill="white" stroke="#252D3B" stroke-width="0.5" stroke-miterlimit="10" stroke-linecap="round"/>
<path d="M105.255 112.632C105.255 112.632 99.6456 106.85 95.9833 106.368" stroke="white" stroke-width="0.5" stroke-miterlimit="10" stroke-linecap="round"/>
<path d="M115.991 118.781C115.991 118.781 132.433 108.912 137.194 126.857" stroke="white" stroke-width="0.5" stroke-miterlimit="10" stroke-linecap="round"/>
<path d="M219.442 193.878L176.053 225.142L178.694 227.07C179.141 227.399 179.681 227.576 180.236 227.576C180.791 227.576 181.331 227.399 181.778 227.07L221.292 197.752C221.511 197.597 221.689 197.392 221.813 197.154C221.936 196.916 222 196.652 222 196.384C222 196.116 221.936 195.851 221.813 195.613C221.689 195.375 221.511 195.17 221.292 195.015L219.442 193.878Z" fill="#252D3B"/>
<path d="M125.378 257.005L126.149 260.84L180.93 261.746L180.66 258.026L125.378 257.005Z" fill="#252D3B"/>
<path d="M213.428 135.898H112.714C111.451 135.898 110.24 135.396 109.348 134.503C108.455 133.61 107.953 132.399 107.953 131.137C107.953 129.872 108.454 128.659 109.346 127.763C110.239 126.867 111.45 126.361 112.714 126.356H213.428C214.056 126.356 214.677 126.48 215.257 126.72C215.837 126.96 216.364 127.313 216.808 127.756C217.252 128.2 217.604 128.727 217.844 129.307C218.084 129.887 218.208 130.509 218.208 131.137C218.208 131.763 218.084 132.384 217.844 132.963C217.603 133.542 217.251 134.068 216.807 134.51C216.363 134.952 215.836 135.303 215.256 135.541C214.676 135.779 214.055 135.9 213.428 135.898Z" fill="#2E3D51" fill-opacity="0.1"/>
<path d="M146.234 261.553H141.704V135.493C141.702 135.195 141.758 134.9 141.871 134.624C141.983 134.348 142.148 134.097 142.358 133.885C142.568 133.674 142.817 133.506 143.092 133.392C143.367 133.277 143.662 133.218 143.96 133.218C144.563 133.218 145.141 133.458 145.568 133.884C145.995 134.311 146.234 134.889 146.234 135.493V261.553Z" fill="#252D3B"/>
<path d="M198.412 151.067H193.863V261.38H198.412V151.067Z" fill="#2E3D51" fill-opacity="0.1"/>
<path d="M146.253 151.067H141.704V261.38H146.253V151.067Z" fill="#2E3D51" fill-opacity="0.1"/>
<path d="M122.853 44.2817C122.853 44.2817 121.427 49.4283 114.449 47.4622C107.471 45.4961 106.546 56.2324 101.785 48.6572C98.6624 43.7035 89.391 64.5787 85.9985 59.2394" stroke="#252D3B" stroke-width="0.5" stroke-miterlimit="10" stroke-linecap="round"/>
<path d="M122.564 37.3235C119.673 31.7915 103.289 37.1886 103.289 37.1886C101.545 36.5003 99.6421 36.3161 97.7983 36.6569C95.9545 36.9977 94.2436 37.8498 92.8608 39.1161C91.9767 39.8311 91.2697 40.7406 90.7949 41.7737C90.3202 42.8068 90.0904 43.9357 90.1237 45.0722C90.1376 46.2263 89.7926 47.3562 89.1366 48.3057C88.4805 49.2553 87.5457 49.9776 86.4614 50.3729C83.9846 51.1084 81.8734 52.7451 80.5438 54.9604C78.2886 59.7214 77.4212 69.7253 89.3912 71.942C90.7832 72.237 92.2284 72.1607 93.5816 71.7209C94.9349 71.2811 96.1487 70.4932 97.1013 69.4362C103.828 69.6675 106.739 61.4562 105.448 56.6952C105.255 56.0013 105.12 55.3652 104.985 54.7677C104.272 51.5872 108.84 53.1485 111.635 51.3559C114.43 49.5633 113.89 45.0915 116.647 45.9974C122.179 47.7515 125.455 42.8555 122.564 37.3235Z" fill="#252D3B"/>
<path d="M196.909 191.025C196.909 191.025 186.712 180.616 190.51 177.821C197.14 172.945 197.314 190.62 197.314 190.62L208.108 178.226" stroke="#252D3B" stroke-width="0.5" stroke-miterlimit="10" stroke-linecap="round"/>
<path d="M163.871 244.553C163.871 244.553 162.232 233.546 166.82 233.219C171.947 232.872 164.468 244.88 164.468 244.88L174.896 243.936" stroke="#252D3B" stroke-width="0.5" stroke-miterlimit="10" stroke-linecap="round"/>
<path d="M125.899 87.8635C124.742 91.8727 121.273 96.0362 112.406 97.7517C95.4629 101.048 76.8815 82.582 72.6794 78.1294C75.1911 74.7958 78.2088 71.8756 81.6232 69.4748C86.2972 66.3465 91.9357 64.9923 97.5206 65.6569C103.106 66.3214 108.269 68.9608 112.078 73.0986L125.899 87.8635Z" fill="#FEB55B"/>
<path d="M108.358 77.8979L127.113 97.5973" stroke="white" stroke-width="0.5" stroke-miterlimit="10" stroke-linecap="round"/>
<path d="M55.2353 196.827C55.2357 199.986 54.5793 203.11 53.3077 206.002H46.0409C40.0086 206.002 34.2233 203.606 29.9578 199.34C25.6924 195.075 23.296 189.289 23.296 183.257V175.547C26.1143 174.359 29.1427 173.749 32.2012 173.754C33.2075 173.747 34.2129 173.818 35.2082 173.966C39.7933 174.583 44.0857 176.569 47.5245 179.664C50.9633 182.759 53.3886 186.819 54.4835 191.314C54.9646 193.113 55.2172 194.965 55.2353 196.827Z" fill="#252D3B" stroke="white" stroke-width="0.5" stroke-miterlimit="10" stroke-linecap="round"/>
</svg>
