<svg width="204" height="262" viewBox="0 0 204 262" fill="none" xmlns="http://www.w3.org/2000/svg">
<path d="M35.7375 84.592C87.1563 108.911 46.0805 158.439 115.442 140.052C161.374 127.892 156.092 161.146 184.025 138.699C236.037 96.9184 172.904 0.902065 102.652 0.0123381C15.2923 -1.08128 6.69157 70.8569 35.7375 84.592Z" fill="#EAECEE"/>
<path d="M91.4195 56.195C91.4195 56.195 87.6196 57.3627 85.8587 54.5823C83.5973 51.079 88.083 50.2449 88.083 50.2449C87.3141 49.1428 86.9333 47.8164 87.0004 46.4743C87.0676 45.1322 87.5788 43.8504 88.4537 42.8305C91.5678 39.494 97.4066 41.2179 97.4066 41.2179C98.0153 39.7887 98.9689 38.5327 100.182 37.5623C101.395 36.5919 102.83 35.9373 104.358 35.6571C109.325 35.0269 111.179 40.7545 111.179 40.7545C111.179 40.7545 112.921 38.0112 114.423 40.495C116.068 40.077 117.81 40.2929 119.304 41.0998C120.798 41.9067 121.933 43.2457 122.486 44.8509C123.071 46.5094 123.23 48.2885 122.949 50.0246C122.667 51.7607 121.953 53.3981 120.873 54.7862C121.267 54.814 121.65 54.9265 121.997 55.1161C122.343 55.3057 122.645 55.5678 122.881 55.8846C123.116 56.2014 123.281 56.5653 123.363 56.9516C123.445 57.3379 123.443 57.7373 123.357 58.1227C123.109 58.9977 122.59 59.7711 121.873 60.331C121.157 60.8909 120.281 61.2081 119.372 61.2367C119.372 61.2367 122.986 65.9449 116.777 68.058C110.567 70.1711 91.9014 56.0837 91.9014 56.4545" fill="#252D3B"/>
<path d="M19.0921 245.521H23.4666L23.4666 138.384H19.0921L19.0921 245.521Z" fill="#252D3B"/>
<path d="M56.4792 132.6C56.4792 132.6 47.2112 134.324 41.5206 130.209C40.2354 129.198 38.6245 128.693 36.9921 128.788C35.3597 128.884 33.8188 129.574 32.6604 130.728L32.16 131.303C31.9816 131.529 31.753 131.71 31.4924 131.832C31.2318 131.954 30.9463 132.014 30.6586 132.007C30.3171 132.018 29.9793 131.934 29.6824 131.765C29.3856 131.596 29.1412 131.348 28.9763 131.049C28.8113 130.75 28.7323 130.411 28.7478 130.07C28.7634 129.729 28.873 129.398 29.0644 129.115C31.4418 124.861 35.3117 121.638 39.9266 120.07C48.416 117.234 57.4616 120.774 57.4616 120.774C56.1656 124.575 55.8282 128.637 56.4792 132.6Z" fill="white" stroke="#252D3B" stroke-width="0.5" stroke-miterlimit="10" stroke-linecap="round"/>
<path d="M93.3843 208.394H165.675C171.475 208.394 177.039 206.089 181.141 201.988C185.243 197.886 187.547 192.322 187.547 186.521V122.721C187.702 110.748 183.094 99.2034 174.737 90.6277C166.381 82.0519 154.96 77.1472 142.987 76.9923C131.013 76.8375 119.469 81.4452 110.894 89.8019C102.318 98.1586 97.4131 109.58 97.2583 121.553C96.2759 159.552 93.3843 208.394 93.3843 208.394Z" fill="white" stroke="#252D3B" stroke-width="0.5" stroke-miterlimit="10" stroke-linecap="round"/>
<path d="M94.0331 49.003C97.7403 45.4256 105.859 45.1475 110.623 49.8371C112.221 51.447 113.458 53.3791 114.25 55.5046C115.043 57.6302 115.374 59.9002 115.22 62.1635L123.209 74.1007C123.209 74.1007 113.607 79.6615 105.785 78.6791C106.008 76.5097 105.527 74.326 104.413 72.451C103.466 72.9322 102.366 73.0189 101.355 72.692C98.7565 71.4527 96.7564 69.2326 95.794 66.5195C95.794 66.5195 94.033 67.5761 93.5326 67.0756C93.0321 66.5751 93.9404 63.5167 92.8468 61.4221C91.7531 59.3275 90.3259 52.5619 94.0331 49.003Z" fill="white" stroke="#252D3B" stroke-width="0.5" stroke-miterlimit="10" stroke-linecap="round"/>
<path d="M115.442 64.5916C115.651 64.8223 115.928 64.9797 116.232 65.0404C116.537 65.1012 116.854 65.0621 117.135 64.929C117.415 64.7958 117.646 64.5757 117.792 64.3012C117.938 64.0268 117.991 63.7126 117.945 63.4053C117.772 61.9398 117.772 60.4592 117.945 58.9937C118.779 51.8574 113.329 39.8461 100.91 41.2733C90.1221 42.4967 89.3806 50.3189 91.642 52.8213C91.8823 53.0634 92.2013 53.2115 92.5413 53.2387C92.8813 53.2659 93.2199 53.1704 93.4956 52.9695C97.2694 50.0572 101.973 48.6146 106.73 48.9102C107.017 48.9419 107.288 49.0599 107.506 49.2486C107.724 49.4372 107.88 49.6876 107.954 49.9667C108.862 52.6359 111.197 60.18 115.442 64.5916Z" fill="#252D3B"/>
<path d="M104.895 60.069C104.895 60.069 103.968 56.1579 107.12 56.0096C110.271 55.8613 110.734 62.2192 108.38 62.627C106.026 63.0348 104.895 60.069 104.895 60.069Z" fill="white"/>
<path d="M106.081 60.2729C106.081 60.2729 105.192 57.8817 107.713 57.7891L106.081 60.2729Z" fill="white"/>
<path d="M106.081 60.2729C106.081 60.2729 105.192 57.8817 107.713 57.7891" stroke="#252D3B" stroke-width="0.5" stroke-miterlimit="10" stroke-linecap="round"/>
<path d="M96.9618 62.015C96.9618 62.5711 96.832 63.0345 96.554 63.0716C96.2759 63.1087 96.0164 62.6638 95.9608 62.1077C95.9052 61.5516 96.0721 61.0882 96.3501 61.0697C96.6282 61.0512 96.8876 61.459 96.9618 62.015Z" fill="#252D3B"/>
<path d="M97.4994 59.8837C96.838 59.7583 96.1589 59.7583 95.4975 59.8837C94.4039 60.1246 94.4039 58.753 95.9238 58.79C97.4438 58.8271 98.0184 59.8651 97.4994 59.8837Z" fill="#252D3B"/>
<path d="M104.098 72.2284C104.098 72.2284 108.454 69.8002 108.862 70.3748C109.27 70.9495 106.508 76.5288 105.618 75.9356C105.479 74.5793 104.951 73.2921 104.098 72.2284Z" fill="#252D3B"/>
<path d="M99.2417 69.022C99.1968 69.2991 99.0761 69.5583 98.8929 69.771C98.7096 69.9836 98.4711 70.1414 98.2037 70.2268" fill="white"/>
<path d="M99.2417 69.022C99.1968 69.2991 99.0761 69.5583 98.8929 69.771C98.7096 69.9836 98.4711 70.1414 98.2037 70.2268" stroke="#252D3B" stroke-width="0.5" stroke-miterlimit="10" stroke-linecap="round"/>
<path d="M131.605 249.192H139.557V208.449H131.605V249.192Z" fill="#252D3B"/>
<path d="M159.521 259.85C161.926 259.85 163.877 257.9 163.877 255.494C163.877 253.088 161.926 251.138 159.521 251.138C157.115 251.138 155.165 253.088 155.165 255.494C155.165 257.9 157.115 259.85 159.521 259.85Z" fill="#252D3B"/>
<path d="M112.347 259.85C114.752 259.85 116.703 257.9 116.703 255.494C116.703 253.088 114.752 251.138 112.347 251.138C109.941 251.138 107.991 253.088 107.991 255.494C107.991 257.9 109.941 259.85 112.347 259.85Z" fill="#252D3B"/>
<path d="M160.299 255.494H113.125" stroke="#252D3B" stroke-width="0.5" stroke-miterlimit="10" stroke-linecap="round"/>
<path d="M146.045 254.511V252.435C146.048 251.929 145.95 251.427 145.759 250.959C145.567 250.49 145.285 250.063 144.929 249.704C144.573 249.344 144.149 249.058 143.682 248.862C143.215 248.666 142.714 248.564 142.208 248.561H128.77C126.638 248.561 124.914 252.528 124.914 252.435V254.604" stroke="#252D3B" stroke-width="0.5" stroke-miterlimit="10" stroke-linecap="round"/>
<path d="M55.7192 131.914C55.7192 131.914 82.2257 132.748 87.2304 131.488C92.2351 130.228 108.602 118.513 108.602 118.513C108.602 118.513 115.22 140.163 114.349 150.469C114.048 157.852 115.279 165.216 117.963 172.1L159.817 169.005C159.817 169.005 159.539 154.176 157.964 136.159C157.925 136.229 157.875 136.291 157.815 136.344C157.815 136.344 157.815 135.566 157.556 134.176C156.536 126.65 152.366 101.33 139.965 85.3891C137.55 82.1833 134.648 79.3751 131.365 77.0664C126.87 74.0581 121.448 72.7559 116.077 73.3949C110.706 74.034 105.741 76.5721 102.078 80.5512L88.7689 94.7497L74.1625 110.338L57.6655 118.161C47.6005 122.053 55.7192 131.914 55.7192 131.914Z" fill="#252D3B"/>
<path d="M36.4418 258.478L89.0284 257.644L91.4195 246.689L92.5502 241.425C92.8282 240.109 93.1804 238.83 93.5697 237.532C98.111 222.444 101.077 200.46 98.111 188.912C103.472 190.839 109.1 191.921 114.793 192.119C128.955 192.119 149.789 189.691 157.426 176.271C165.063 162.851 158.149 145.446 158.149 145.446C158.149 145.446 79.6862 130.617 62.5034 136.456C38.9441 144.445 38.8515 173.528 30.399 193.546C32.2526 196.16 37.8134 197.532 36.8866 204.668C35.9784 212.305 41.984 218.7 45.9322 222.018C52.5032 216.562 58.1383 210.069 62.6146 202.796C62.6146 202.796 61.8546 220.794 60.3532 234.919C60.0092 236.905 59.267 238.8 58.1712 240.492C57.0754 242.183 55.6486 243.636 53.9768 244.761C45.4503 251.175 37.554 251.175 36.4418 258.478Z" fill="#FEB55B"/>
<path d="M62.04 202.277C62.04 202.277 60.6683 163.481 76.5166 151.47C86.7114 143.722 102.745 147.559 124.006 147.596" stroke="#252D3B" stroke-width="0.5" stroke-miterlimit="10" stroke-linecap="round"/>
<path d="M157.871 136.382H172.162" stroke="#252D3B" stroke-width="0.5" stroke-miterlimit="10" stroke-linecap="round"/>
<path d="M119.502 165.427C119.647 157.713 122.819 150.364 128.331 144.966C133.844 139.567 141.258 136.551 148.974 136.567C149.548 136.567 150.104 136.567 150.661 136.567H177.111V153.249H175.573C177.707 157.737 178.67 162.693 178.373 167.653C178.075 172.614 176.527 177.419 173.871 181.619C171.216 185.82 167.54 189.28 163.186 191.677C158.833 194.073 153.943 195.329 148.974 195.326H148.306V200.127H119.502V165.427Z" fill="white"/>
<path d="M98.352 189.172C96.5942 187.315 94.6501 185.645 92.5503 184.186" stroke="#252D3B" stroke-width="0.5" stroke-miterlimit="10" stroke-linecap="round"/>
<path d="M13.1235 131.451L1.09367 99.3654C0.940491 98.9173 0.964627 98.4276 1.1611 97.9967C1.35757 97.5658 1.71149 97.2265 2.15023 97.0484L2.92871 96.7518C3.37915 96.5931 3.87345 96.6144 4.30856 96.8113C4.74367 97.0081 5.08604 97.3653 5.26427 97.8083L16.219 127.021C16.354 127.36 16.5861 127.652 16.8861 127.86C17.1862 128.067 17.5409 128.182 17.9058 128.189H50.2882C50.7798 128.189 51.2512 128.384 51.5988 128.732C51.9465 129.079 52.1418 129.551 52.1418 130.042C52.1418 130.534 51.9465 131.005 51.5988 131.353C51.2512 131.701 50.7798 131.896 50.2882 131.896H13.1235V131.451Z" fill="#252D3B"/>
<path d="M40.2973 123.592C37.1932 124.703 34.4418 126.623 32.3268 129.152L40.2973 123.592Z" fill="white"/>
<path d="M40.2973 123.592C37.1932 124.703 34.4418 126.623 32.3268 129.152" stroke="#252D3B" stroke-width="0.5" stroke-miterlimit="10" stroke-linecap="round"/>
<path d="M42.1324 125.056C40.0629 125.933 38.1766 127.19 36.5716 128.763L42.1324 125.056Z" fill="white"/>
<path d="M42.1324 125.056C40.0629 125.933 38.1766 127.19 36.5716 128.763" stroke="#252D3B" stroke-width="0.5" stroke-miterlimit="10" stroke-linecap="round"/>
<path d="M119.631 191.619V208.079" stroke="#252D3B" stroke-width="0.5" stroke-miterlimit="10" stroke-linecap="round"/>
<path d="M36.4418 258.478L89.0284 257.644L91.4195 246.689C86.7114 247.153 76.4795 247.727 70.8446 244.613C65.2096 241.499 64.6165 236.865 60.3162 234.9C59.2005 238.735 56.9833 242.157 53.9398 244.743C45.4503 251.175 37.554 251.175 36.4418 258.478Z" fill="white" stroke="#252D3B" stroke-width="0.5" stroke-miterlimit="10" stroke-linecap="round"/>
<path d="M108.676 118.606C108.676 118.606 114.07 113.045 117.592 112.582" stroke="white" stroke-width="0.5" stroke-miterlimit="10" stroke-linecap="round"/>
<path d="M89.3434 257.44L88.5835 261.129L35.9042 262L36.1637 258.423L89.3434 257.44Z" fill="#252D3B"/>
<path d="M4.57839 140.979H101.429C102.032 140.981 102.629 140.864 103.187 140.635C103.744 140.406 104.251 140.07 104.678 139.644C105.105 139.219 105.444 138.713 105.676 138.157C105.907 137.6 106.026 137.003 106.026 136.4C106.026 135.796 105.907 135.199 105.676 134.641C105.445 134.083 105.106 133.576 104.679 133.15C104.253 132.723 103.746 132.384 103.188 132.153C102.63 131.922 102.033 131.803 101.429 131.803H4.57839C3.36242 131.808 2.19794 132.295 1.33985 133.156C0.481768 134.018 -9.88522e-06 135.184 1.52041e-10 136.4C1.52147e-10 137.001 0.118426 137.597 0.348511 138.152C0.578597 138.708 0.915842 139.212 1.34099 139.638C1.76613 140.063 2.27085 140.4 2.82633 140.63C3.38181 140.86 3.97715 140.979 4.57839 140.979Z" fill="#EAECEE"/>
<path d="M73.6621 245.521H69.2876L69.2876 140.422C69.2876 139.882 69.5024 139.363 69.8848 138.981C70.2672 138.598 70.7858 138.384 71.3265 138.384H71.6231C72.1639 138.384 72.6825 138.598 73.0649 138.981C73.4473 139.363 73.6621 139.882 73.6621 140.422L73.6621 245.521Z" fill="#252D3B"/>
<path d="M19.0921 261.648H23.4666L23.4666 155.566H19.0921L19.0921 261.648Z" fill="#EAECEE"/>
<path d="M69.2876 261.648H73.6621L73.6621 155.566H69.2876L69.2876 261.648Z" fill="#EAECEE"/>
<path d="M91.4566 51.6165C91.4566 51.6165 91.6605 56.9734 99.0563 55.8427C99.0563 55.8427 99.8348 58.8084 102.504 58.3821C105.173 57.9558 104.487 54.3598 108.769 55.8427C109.122 56.0638 109.429 56.3526 109.67 56.6922C109.912 57.0319 110.084 57.4159 110.177 57.8223C110.27 58.2286 110.282 58.6493 110.212 59.0603C110.142 59.4712 109.992 59.8643 109.77 60.2172C110.18 61.8373 111.148 63.261 112.504 64.2375C113.861 65.214 115.518 65.6807 117.185 65.5555C123.672 65.5555 112.754 45.1659 108.176 44.5172C103.598 43.8684 91.6975 42.8489 91.4566 51.6165Z" fill="#252D3B"/>
<path d="M89.8439 43.7386C89.6771 43.7386 91.4937 35.3788 98.7227 40.9582" stroke="#252D3B" stroke-width="0.5" stroke-miterlimit="10" stroke-linecap="round"/>
<path d="M73.7548 223.482H19.1107V227.412H73.7548V223.482Z" fill="#252D3B"/>
<path d="M7.19199 219.627L57.6098 218.793C57.6098 218.793 59.3708 212.472 60.3717 208.19C55.2187 207.875 45.7654 210.044 41.9469 203.278C39.4889 198.72 35.4064 195.252 30.5102 193.565C29.6369 196.255 28.2871 198.767 26.525 200.979C24.8522 202.997 22.7828 204.65 20.4452 205.836C17.0717 207.708 9.8241 212.231 7.19199 219.627Z" fill="white" stroke="#252D3B" stroke-width="0.5" stroke-miterlimit="10" stroke-linecap="round"/>
<path d="M6.69163 219.627L58.1104 218.83L57.2022 221.869C57.0642 222.396 56.7573 222.862 56.3287 223.197C55.9001 223.532 55.3734 223.717 54.8295 223.723H7.50717C7.25003 223.728 6.99572 223.669 6.76642 223.553C6.53712 223.436 6.33984 223.265 6.19175 223.055C6.04366 222.845 5.94925 222.601 5.91683 222.346C5.88442 222.091 5.91495 221.832 6.00576 221.591L6.69163 219.627Z" fill="#252D3B"/>
<path d="M22.0022 205.243C22.0022 205.243 24.6529 205.41 27.9337 209.469" stroke="#252D3B" stroke-width="0.5" stroke-miterlimit="10" stroke-linecap="round"/>
<path d="M25.2831 202.444C25.2831 202.444 27.9337 202.592 31.2146 206.652" stroke="#252D3B" stroke-width="0.5" stroke-miterlimit="10" stroke-linecap="round"/>
<path d="M51.2149 247.134C51.2149 247.134 53.8841 247.301 57.1649 251.36" stroke="#252D3B" stroke-width="0.5" stroke-miterlimit="10" stroke-linecap="round"/>
<path d="M54.5144 244.391C54.5144 244.391 57.165 244.539 60.4459 248.598" stroke="#252D3B" stroke-width="0.5" stroke-miterlimit="10" stroke-linecap="round"/>
<path d="M159.243 175.808C161.081 175.808 162.845 176.538 164.145 177.838C165.445 179.138 166.175 180.901 166.175 182.74V208.283H152.31V182.666C152.31 180.827 153.041 179.064 154.341 177.764C155.641 176.464 157.404 175.733 159.243 175.733V175.808Z" fill="#252D3B"/>
</svg>
