<svg width="23" height="23" viewBox="0 0 23 23" fill="none" xmlns="http://www.w3.org/2000/svg">
<path d="M4.74723 9.49393H6.64611C8.54498 9.49393 9.49442 8.54449 9.49442 6.64562V4.74675C9.49442 2.84787 8.54498 1.89844 6.64611 1.89844H4.74723C2.84836 1.89844 1.89893 2.84787 1.89893 4.74675V6.64562C1.89893 8.54449 2.84836 9.49393 4.74723 9.49393Z" fill="#F5F5F0" stroke="black" stroke-width="1.5" stroke-miterlimit="10" stroke-linecap="round" stroke-linejoin="round"/>
<path d="M16.1404 9.49393H18.0393C19.9382 9.49393 20.8876 8.54449 20.8876 6.64562V4.74675C20.8876 2.84787 19.9382 1.89844 18.0393 1.89844H16.1404C14.2416 1.89844 13.2921 2.84787 13.2921 4.74675V6.64562C13.2921 8.54449 14.2416 9.49393 16.1404 9.49393Z" fill="#F5F5F0" stroke="black" stroke-width="1.5" stroke-miterlimit="10" stroke-linecap="round" stroke-linejoin="round"/>
<path d="M16.1404 20.8872H18.0393C19.9382 20.8872 20.8876 19.9378 20.8876 18.0389V16.1401C20.8876 14.2412 19.9382 13.2917 18.0393 13.2917H16.1404C14.2416 13.2917 13.2921 14.2412 13.2921 16.1401V18.0389C13.2921 19.9378 14.2416 20.8872 16.1404 20.8872Z" fill="#F5F5F0" stroke="black" stroke-width="1.5" stroke-miterlimit="10" stroke-linecap="round" stroke-linejoin="round"/>
<path d="M4.74723 20.8872H6.64611C8.54498 20.8872 9.49442 19.9378 9.49442 18.0389V16.1401C9.49442 14.2412 8.54498 13.2917 6.64611 13.2917H4.74723C2.84836 13.2917 1.89893 14.2412 1.89893 16.1401V18.0389C1.89893 19.9378 2.84836 20.8872 4.74723 20.8872Z" fill="#F5F5F0" stroke="black" stroke-width="1.5" stroke-miterlimit="10" stroke-linecap="round" stroke-linejoin="round"/>
</svg>
