<svg width="166" height="144" viewBox="0 0 166 144" fill="none" xmlns="http://www.w3.org/2000/svg">
<circle cx="43.5" cy="43.5" r="43.5" fill="#EFEFEF"/>
<path d="M145.283 43.8047C144.524 43.2157 143.535 43.0179 142.621 43.2535C140.572 43.7863 138.856 44.0349 137.219 44.0349C125.308 44.0349 106.346 34.1058 106.346 22.3441C106.346 20.6332 104.963 19.2456 103.259 19.2456H78.5608C76.8563 19.2456 75.4738 20.6344 75.4738 22.3441C75.4738 34.1072 56.5122 44.0349 44.6012 44.0349C43.7925 44.0349 42.9893 44.0965 42.2054 44.1646C41.106 44.2575 39.9453 44.3321 39.1981 44.1332C38.285 43.8976 37.2965 44.0965 36.5374 44.6855C35.7837 45.2745 35.339 46.1791 35.339 47.1334V81.4494C35.339 106.785 87.0066 141.449 89.2062 142.91C89.7252 143.257 90.3174 143.424 90.9107 143.424C91.5041 143.424 92.0963 143.257 92.6153 142.91C94.8129 141.448 146.483 106.785 146.483 81.4494V46.2591C146.483 45.3048 146.038 44.3937 145.284 43.8047L145.283 43.8047ZM93.9986 87.3367V103.146C93.9986 104.857 92.615 106.245 90.9116 106.245C89.2071 106.245 87.8246 104.856 87.8246 103.146V87.3367C80.7859 85.8993 75.4753 79.646 75.4753 72.1586C75.4753 63.6118 82.4031 56.6648 90.9116 56.6648C99.42 56.6648 106.348 63.6118 106.348 72.1586C106.348 79.646 101.037 85.893 93.9986 87.3367Z" fill="#FEB776"/>
<circle cx="138.221" cy="115.645" r="25.7788" fill="#2E3D51" stroke="white" stroke-width="4"/>
<path d="M134.826 124.546C134.58 124.546 134.333 124.451 134.14 124.261L127.478 117.709C127.076 117.315 127.057 116.655 127.436 116.236C127.814 115.817 128.447 115.798 128.849 116.193L134.818 122.062L148.124 108.656C148.522 108.257 149.154 108.268 149.538 108.682C149.921 109.096 149.91 109.756 149.513 110.156L135.52 124.252C135.327 124.447 135.076 124.545 134.826 124.545L134.826 124.546Z" fill="white"/>
</svg>
