<svg width="14" height="15" viewBox="0 0 14 15" fill="none" xmlns="http://www.w3.org/2000/svg">
<path d="M3.35091 11.5338C3.47942 11.6623 3.67936 11.6623 3.80797 11.5338L10.6632 4.67857C10.7917 4.55006 10.7917 4.35012 10.6632 4.22151L10.0205 3.57886C9.89202 3.45035 9.69208 3.45035 9.56347 3.57886L2.70826 10.4341C2.57975 10.5626 2.57975 10.7625 2.70826 10.8911L3.35091 11.5338Z" fill="white"/>
<path d="M8.02107 10.0626L12.0342 6.04947C12.1627 5.92096 12.1627 5.72102 12.0342 5.5924L11.463 5.02119C11.3345 4.89268 11.1346 4.89268 11.0059 5.02119L4.0936 11.9335C3.99358 12.0335 3.96509 12.2049 4.03652 12.3334L4.26505 12.7333C4.19362 12.7904 4.12219 12.8333 4.03652 12.8476L2.45125 13.1046C2.22272 12.5048 1.73717 12.0192 1.13734 11.7907L1.39436 10.2054C1.4086 10.1197 1.45144 10.0341 1.50862 9.97687L1.90851 10.2054C2.03702 10.2768 2.19412 10.2625 2.3084 10.1483L9.22073 3.23598C9.34925 3.10747 9.34925 2.90753 9.22073 2.77892L8.64952 2.2077C8.521 2.07919 8.32106 2.07919 8.19245 2.2077L0.994483 9.40567C0.80879 9.59136 0.694516 9.81979 0.651697 10.0769L0.0376353 13.733C0.00904388 13.8759 0.0518812 13.99 0.137656 14.0901V14.1043H0.151901C0.22333 14.1757 0.323251 14.2186 0.423279 14.2186C0.45187 14.2186 0.480362 14.2186 0.494708 14.2043L4.15082 13.5903C4.40784 13.5474 4.63637 13.4332 4.82206 13.2475L8.02107 10.0626Z" fill="white"/>
<path d="M13.5625 4.0499C12.9341 2.52171 11.7202 1.29353 10.192 0.67942C9.99209 0.593745 9.76356 0.650829 9.60646 0.793686L8.9924 1.40775C8.86388 1.53626 8.86388 1.7362 8.9924 1.86481L12.3772 5.24957C12.5057 5.37808 12.7056 5.37808 12.8342 5.24957L13.4483 4.63551C13.5911 4.47841 13.6482 4.24988 13.5625 4.04994L13.5625 4.0499Z" fill="white"/>
</svg>
