<svg width="19" height="16" viewBox="0 0 19 16" fill="none" xmlns="http://www.w3.org/2000/svg">
<path d="M17.9448 11.9827H15.6226C15.3059 11.1687 14.5671 10.4566 13.7226 10.1514C12.0338 9.64267 10.2392 10.4566 9.7114 11.9827H1.0555C0.52766 11.9827 0 12.4914 0 13C0 13.5087 0.527841 14.0173 1.0555 14.0173H9.71095C10.0276 14.8313 10.661 15.5434 11.611 15.8486C13.2998 16.3573 15.0943 15.5434 15.6221 14.0173H17.9445C18.4723 14.0173 19 13.5086 19 13C19 12.4913 18.4722 11.9827 17.9445 11.9827H17.9448ZM12.6668 14.0173C12.139 14.0173 11.6113 13.5086 11.6113 13C11.6113 12.4913 12.1392 11.9827 12.6668 11.9827C13.1947 11.9827 13.7223 12.4914 13.7223 13C13.7223 13.5087 13.1947 14.0173 12.6668 14.0173Z" fill="#2E3D51"/>
<path d="M17.9445 2.3334H6.1221C5.69994 0.9334 4.53878 0 3.16664 0C1.37215 0 0 1.5166 0 3.5C0 5.4834 1.37215 7 3.16664 7C4.53878 7 5.69994 6.0666 6.1221 4.6666H17.9445C18.4723 4.6666 19 4.0832 19 3.5C19 2.9166 18.4722 2.3334 17.9445 2.3334ZM3.16673 4.6666C2.63889 4.6666 2.11124 4.0834 2.11124 3.5C2.11124 2.9166 2.63907 2.3334 3.16673 2.3334C3.69456 2.3334 4.22221 2.9168 4.22221 3.5C4.22221 4.0834 3.69456 4.6666 3.16673 4.6666Z" fill="#2E3D51"/>
</svg>
