<svg width="16" height="16" viewBox="0 0 16 16" fill="none" xmlns="http://www.w3.org/2000/svg">
<path d="M1.11612 13.1161C0.627961 13.6043 0.627961 14.3957 1.11612 14.8839C1.60427 15.372 2.39573 15.372 2.88388 14.8839L1.11612 13.1161ZM15.25 2C15.25 1.30964 14.6904 0.75 14 0.749999L2.75 0.749999C2.05964 0.749999 1.5 1.30964 1.5 2C1.5 2.69036 2.05964 3.25 2.75 3.25H12.75V13.25C12.75 13.9404 13.3096 14.5 14 14.5C14.6904 14.5 15.25 13.9404 15.25 13.25L15.25 2ZM2.88388 14.8839L14.8839 2.88388L13.1161 1.11612L1.11612 13.1161L2.88388 14.8839Z" fill="black"/>
</svg>
