<svg width="40" height="40" viewBox="0 0 40 40" fill="none" xmlns="http://www.w3.org/2000/svg">
<rect width="40" height="40" rx="14" fill="#FEB776"/>
<mask id="mask0_1_34" style="mask-type:luminance" maskUnits="userSpaceOnUse" x="0" y="0" width="40" height="40">
<rect width="40" height="40" rx="14" fill="white"/>
</mask>
<g mask="url(#mask0_1_34)">
<path fill-rule="evenodd" clip-rule="evenodd" d="M34.5515 35.3595C33.3724 33.6538 31.6341 32.414 29.6374 31.8547L25 30.5556V27.2224C26.9604 25.7497 28.2479 23.4322 28.327 20.8108C28.601 20.9316 28.9034 21 29.2223 21C30.4495 21 31.4445 20.0051 31.4445 18.7778C31.4445 17.5505 30.4495 16.5556 29.2223 16.5556C28.906 16.5556 28.6058 16.6226 28.3334 16.7417V16.1111C28.3334 11.5087 24.6024 7.7778 20.0001 7.7778H20C15.3977 7.7778 11.6668 11.5087 11.6668 16.1111V16.7417C11.3943 16.6226 11.0941 16.5556 10.7779 16.5556C9.55054 16.5556 8.55565 17.5505 8.55565 18.7778C8.55565 20.0051 9.55054 21 10.7779 21C11.0967 21 11.3991 20.9317 11.6732 20.8108C11.7522 23.4322 13.0397 25.7497 15 27.2224V30.5556L10.3627 31.8547C8.36599 32.414 6.62765 33.6538 5.44854 35.3595L2.22232 40.0267V43.3334H37.7779V40.0267L34.5515 35.3595Z" fill="#F5CDD3"/>
<path fill-rule="evenodd" clip-rule="evenodd" d="M20 28.8889C18.9724 28.8889 17.9889 28.7018 17.08 28.3617C18.3727 29.1874 19.9078 29.6667 21.5556 29.6667C22.7844 29.6667 23.9499 29.3985 25 28.9211V27.2223C23.6072 28.2685 21.8761 28.8889 20 28.8889Z" fill="#F48C9D"/>
<path d="M11.9566 19.1021C11.9849 18.9989 12.0002 18.8901 12.0002 18.7779C12.0002 18.1029 11.4529 17.5556 10.7779 17.5556C10.6092 17.5556 10.4484 17.5899 10.3022 17.6516" stroke="#00004D" stroke-linecap="round" stroke-linejoin="round"/>
<path d="M28.0436 19.1021C28.0152 18.9989 28.0001 18.8901 28.0001 18.7779C28.0001 18.1029 28.5474 17.5556 29.2224 17.5556C29.391 17.5556 29.5518 17.5899 29.6981 17.6516" stroke="#00004D" stroke-linecap="round" stroke-linejoin="round"/>
<path fill-rule="evenodd" clip-rule="evenodd" d="M22.2222 23.7788C22.2222 25.0061 21.2273 26.001 19.9999 26.001C18.7726 26.001 17.7777 25.0061 17.7777 23.7788H22.2222Z" fill="white"/>
<path fill-rule="evenodd" clip-rule="evenodd" d="M24.5557 19.1111C24.5557 19.602 24.1577 20 23.6668 20C23.1759 20 22.7779 19.602 22.7779 19.1111C22.7779 18.6202 23.1759 18.2222 23.6668 18.2222C24.1577 18.2222 24.5557 18.6202 24.5557 19.1111" fill="#00004D"/>
<path fill-rule="evenodd" clip-rule="evenodd" d="M17.2223 19.1111C17.2223 19.602 16.8243 20 16.3334 20C15.8425 20 15.4445 19.602 15.4445 19.1111C15.4445 18.6202 15.8425 18.2222 16.3334 18.2222C16.8243 18.2222 17.2223 18.6202 17.2223 19.1111" fill="#00004D"/>
<path d="M20 18.2222L21.1111 22L19.5556 22.2222" stroke="#00004D" stroke-linecap="round" stroke-linejoin="round"/>
<path fill-rule="evenodd" clip-rule="evenodd" d="M27.685 17.1754C28.0083 16.8652 28.4249 16.6532 28.8889 16.5832V16.1111V12.1913C28.8889 10.5077 27.9377 8.96885 26.4321 8.21597L20.9938 5.49697C20.3681 5.18408 19.6318 5.18408 19.0062 5.49697L13.5679 8.21597C12.0623 8.96885 11.1111 10.5077 11.1111 12.1913V16.5832C11.5751 16.6532 11.9917 16.8652 12.315 17.1754V17.1272C12.315 16.0257 12.806 14.9815 13.6543 14.279C14.8104 13.3213 16.4308 13.1575 17.7551 13.8644C19.158 14.6132 20.842 14.6132 22.2449 13.8644C23.5692 13.1575 25.1896 13.3213 26.3457 14.279C27.194 14.9815 27.685 16.0257 27.685 17.1272V17.1754Z" fill="#7F553F"/>
<path fill-rule="evenodd" clip-rule="evenodd" d="M37.7778 40.0267L34.5514 35.3595C33.3724 33.6539 31.6341 32.414 29.6373 31.8547L29.3916 31.7858L28.3979 29.8569C28.1532 29.3819 27.7456 29.011 27.2498 28.8121L25 27.9096V30.5822C24.9996 30.5829 24.9995 30.5834 24.9992 30.584L20.0284 35.5549C20.0189 35.5549 20.0095 35.5556 20 35.5556L15 30.5556V27.8818L12.7502 28.7845C12.2543 28.9834 11.8468 29.3542 11.6021 29.8291L10.5916 31.7905L10.3625 31.8547C8.36586 32.414 6.62753 33.6539 5.44842 35.3595L2.2222 40.0267V43.3334H37.7778V40.0267Z" fill="#80C43B"/>
<path d="M10.5917 31.7905L20 37.2359L26.8101 33.3144" stroke="#00004D" stroke-linecap="round" stroke-linejoin="round"/>
<path fill-rule="evenodd" clip-rule="evenodd" d="M17.4444 41.6804V41.6804C17.2603 41.6804 17.1111 41.531 17.1111 41.347V35.5724L17.7778 35.9497V41.347C17.7778 41.531 17.6285 41.6804 17.4444 41.6804" fill="#00004D"/>
<path fill-rule="evenodd" clip-rule="evenodd" d="M22.5555 39.347V39.347C22.3714 39.347 22.2222 39.1977 22.2222 39.0137V35.9562L22.8889 35.5724V39.0137C22.8889 39.1977 22.7396 39.347 22.5555 39.347" fill="#00004D"/>
<path d="M14.1111 29.6667L15 30.5555" stroke="#00004D" stroke-linecap="round" stroke-linejoin="round"/>
<path fill-rule="evenodd" clip-rule="evenodd" d="M25.3366 16.8889H22.0033C21.5163 16.8889 21.1035 17.2027 20.9535 17.6387C20.8112 17.4533 20.5883 17.3333 20.3366 17.3333H19.6112C19.3596 17.3333 19.1365 17.4533 18.9944 17.6387C18.8442 17.2027 18.4315 16.8889 17.9445 16.8889H14.6112C13.9975 16.8889 13.5001 17.3864 13.5001 18V18.7778C13.5001 20.312 14.7438 21.5556 16.2779 21.5556C17.812 21.5556 19.0556 20.312 19.0556 18.7778C19.0556 18.3482 19.4039 18 19.8334 18H20.1144C20.544 18 20.8922 18.3482 20.8922 18.7778C20.8922 20.312 22.1358 21.5556 23.67 21.5556C25.2041 21.5556 26.4478 20.312 26.4478 18.7778V18C26.4478 17.3864 25.9502 16.8889 25.3366 16.8889" fill="#000066"/>
</g>
</svg>
