<svg width="46" height="70" viewBox="0 0 46 70" fill="none" xmlns="http://www.w3.org/2000/svg">
<path d="M39.7778 5.99944C37.0861 3.88345 33.8249 2.53923 30.0161 1.9394C27.3715 1.06898 24.4243 0.617188 21.1758 0.617188C15.1351 0.617188 10.0953 2.22175 6.19898 5.38597C2.23999 8.59759 0.234375 12.764 0.234375 17.7712C0.234375 20.7751 1.0763 23.2549 2.73864 25.1459C4.43138 27.0728 6.62842 28.0482 9.26456 28.0482C10.9411 28.0482 12.3806 27.6995 13.6161 27.0728C15.8107 27.0225 17.5632 26.3875 18.8458 25.14C20.1847 23.8353 20.8529 22.0529 20.8529 19.79C20.8529 18.1571 20.4859 16.7977 19.7534 15.709C19.0184 14.6187 17.8752 13.7459 16.3209 13.0879C16.0045 12.9443 15.5447 12.7587 14.9413 12.5291C13.8756 12.1276 13.3448 11.7554 13.3448 11.4111C13.3448 10.6105 14.1558 9.69222 15.7832 8.66162C16.136 8.43986 16.4946 8.25082 16.8572 8.07596C16.8876 8.07596 16.9181 8.0701 16.9475 8.0701C19.5169 8.0701 21.5291 8.85895 23.0971 10.4849C24.674 12.1188 25.4403 14.2357 25.4403 16.9539C25.4403 20.335 24.1671 24.0673 21.6645 28.0364C20.9496 29.1345 20.4561 29.9467 20.1617 30.5045C19.0376 32.5668 18.1795 34.7678 17.6118 37.0483C17.0505 39.3137 16.7645 41.7331 16.7645 44.2388V45.7945H23.1756L26.3339 44.8401C26.4501 42.0612 27.0453 39.7494 28.1252 37.9006C29.2051 36.0534 31.1814 34.1708 34.0604 32.2522C34.4637 31.964 35.1531 31.5063 36.1319 30.8762C39.0379 29.0137 41.1388 27.3388 42.4331 25.8486C43.4119 24.6455 44.1527 23.3193 44.6556 21.8746C45.1585 20.4288 45.4117 18.9009 45.4117 17.2982C45.4112 12.717 43.532 8.94868 39.7782 5.9994L39.7778 5.99944ZM4.1808 23.8882C2.83598 22.3559 2.15396 20.298 2.15396 17.7718C2.15396 13.3054 3.8727 9.73874 7.41067 6.86762C10.0086 4.75851 13.1938 3.42016 16.905 2.84959C14.6647 3.60572 12.6517 4.69111 10.8819 6.12811C7.14138 9.16479 5.27254 13.0465 5.27254 17.7733C5.27254 20.5521 6.0286 22.8009 7.53979 24.5188C8.13885 25.2016 8.8257 25.7106 9.55822 26.1199C9.45617 26.1209 9.36932 26.141 9.26531 26.141C7.17617 26.1395 5.51244 25.4019 4.18093 23.8882L4.1808 23.8882ZM18.6841 43.8851C18.7101 41.6617 18.9751 39.5179 19.474 37.5094C20.0005 35.3866 20.7988 33.3371 21.8536 31.4067C22.1219 30.8953 22.6003 30.1098 23.2828 29.0621C25.9861 24.7745 27.3575 20.7013 27.3575 16.9539C27.3575 13.7633 26.389 11.1419 24.4784 9.15916C23.6463 8.29803 22.6803 7.65714 21.6238 7.16484C24.157 7.28989 26.2529 8.152 27.8652 9.82102C29.6035 11.6264 30.4768 14.0051 30.4768 16.9529C30.4768 20.5333 29.1663 24.4022 26.5473 28.5535C25.857 29.6135 25.3679 30.4161 25.0818 30.9611C23.9857 32.9662 23.1674 35.0714 22.6197 37.2773C22.4112 38.1165 22.2797 38.9869 22.1532 39.8589C21.7523 41.0795 21.4731 42.4125 21.35 43.8828H18.6838L18.6841 43.8851Z" fill="#FEB55B"/>
<path d="M24.5737 52.3919C24.5619 52.3919 24.5526 52.3953 24.5418 52.3953C23.3271 51.7874 21.9894 51.4417 20.5018 51.4417C18.0394 51.4417 15.9058 52.3109 14.1596 54.0254C12.4148 55.7424 11.5288 57.8518 11.5288 60.2954C11.5288 62.7378 12.4041 64.8526 14.1341 66.5804C15.8652 68.3125 18.0082 69.1899 20.5018 69.1899C21.9693 69.1899 23.2977 68.8451 24.5066 68.2352C24.5311 68.2352 24.5512 68.241 24.5747 68.241C26.7868 68.241 28.6618 67.4728 30.1984 65.9355C31.7349 64.3981 32.504 62.5184 32.504 60.2969C32.504 58.0763 31.7433 56.2049 30.2204 54.6792C28.6966 53.1544 26.8147 52.3921 24.5738 52.3921L24.5737 52.3919ZM20.5018 67.2905C18.5086 67.2905 16.8712 66.6209 15.4963 65.2414C14.1154 63.8628 13.4458 62.2457 13.4458 60.2942C13.4458 58.3494 14.1213 56.7402 15.5104 55.3748C16.9029 54.0045 18.5356 53.3407 20.5031 53.3407C20.5908 53.3407 20.6706 53.3591 20.7583 53.364C20.1039 53.7204 19.4779 54.1414 18.9093 54.6993C17.3444 56.2367 16.5606 58.1013 16.5606 60.2938C16.5606 62.4867 17.338 64.3606 18.8882 65.9106C19.4569 66.4778 20.0853 66.907 20.7465 67.2668C20.6598 67.2707 20.5859 67.2906 20.5016 67.2906L20.5018 67.2905Z" fill="#FEB55B"/>
</svg>
