<svg width="123" height="123" viewBox="0 0 123 123" fill="none" xmlns="http://www.w3.org/2000/svg">
<path d="M34.8051 32.6829H87.4252C88.803 32.6829 89.9182 31.5677 89.9182 30.1898C89.9182 28.812 88.803 27.6968 87.4252 27.6968H34.8051C33.4273 27.6968 32.312 28.812 32.312 30.1898C32.312 31.5677 33.4272 32.6829 34.8051 32.6829Z" fill="black"/>
<path d="M34.8051 47.49H87.4252C88.803 47.49 89.9182 46.3748 89.9182 44.997C89.9182 43.6191 88.803 42.5039 87.4252 42.5039H34.8051C33.4273 42.5039 32.312 43.6191 32.312 44.997C32.312 46.3748 33.4272 47.49 34.8051 47.49Z" fill="black"/>
<path d="M34.8051 62.3045H87.4252C88.803 62.3045 89.9182 61.1893 89.9182 59.8114C89.9182 58.431 88.803 57.3184 87.4252 57.3184H34.8051C33.4273 57.3184 32.312 58.4336 32.312 59.8114C32.312 61.1867 33.4272 62.3045 34.8051 62.3045Z" fill="black"/>
<path d="M121.96 55.1972L92.0895 81.7801L121.409 114.605C121.922 113.289 122.23 111.875 122.23 110.381V57.6975C122.23 56.844 122.135 56.0067 121.959 55.1968L121.96 55.1972Z" fill="#FEB776"/>
<path d="M34.3293 84.6244L3.70413 118.917C5.84759 120.957 8.74307 122.227 11.9411 122.227H110.293C113.501 122.227 116.407 120.949 118.554 118.896L87.9439 84.6235L34.3293 84.6244Z" fill="#FEB776"/>
<path d="M0.226803 55.5942C0.0963524 56.284 0 56.9848 0 57.6976V110.379C0 111.886 0.312909 113.315 0.832998 114.639L29.9478 82.0454L0.226803 55.5942Z" fill="#FEB776"/>
<path d="M34.1612 79.1149C34.3291 79.2675 34.4315 79.4534 34.5508 79.6341H87.1862C87.3056 79.4534 87.4079 79.265 87.5759 79.1149L99.2209 68.748H22.5149L34.1612 79.1149Z" fill="#FEB55B"/>
<path d="M16.7739 63.6442L20.4129 66.8807C21.2075 66.4629 21.7625 65.658 21.7625 64.698V16.1202H100.466V66.5293C100.466 66.8933 100.553 67.2318 100.692 67.543L105.454 63.2774V63.2032L119.719 50.5087C119.273 49.9383 118.797 49.391 118.25 48.9016L105.625 37.9192C105.607 37.9038 105.53 37.8885 105.457 37.8731V13.6257C105.457 12.2454 104.341 11.1327 102.964 11.1327H74.8419L62.7561 0.613241C61.8166 -0.204414 60.4209 -0.204414 59.4839 0.613241L47.411 11.12C47.4085 11.1251 47.4059 11.1302 47.4008 11.1328H19.2682C17.8904 11.1328 16.7751 12.248 16.7751 13.6259V38.1177C16.51 38.1484 16.3139 38.1766 16.2764 38.2124L3.88528 48.9944C3.8776 49.0046 3.87505 49.0123 3.86737 49.0174C3.28673 49.5494 2.77263 50.1403 2.30881 50.7695L16.7739 63.6442Z" fill="#2E3D51"/>
</svg>
