<svg width="15" height="15" viewBox="0 0 15 15" fill="none" xmlns="http://www.w3.org/2000/svg">
<path d="M14.751 13.5811L12.0591 10.9091C14.1611 8.21878 13.9398 4.3858 11.5243 1.97181C10.252 0.700277 8.55563 0 6.74864 0C4.94168 0 3.24528 0.700277 1.97301 1.97181C0.700704 3.24333 0 4.93863 0 6.74452C0 8.55041 0.700704 10.2457 1.97301 11.5172C3.24531 12.7888 4.94164 13.489 6.74864 13.489C8.24214 13.489 9.71727 12.9915 10.8974 12.0517L13.5709 14.7604C13.7369 14.9262 13.9397 15 14.161 15C14.3823 15 14.5851 14.9078 14.7511 14.7604C15.083 14.4472 15.083 13.9128 14.751 13.581L14.751 13.5811ZM11.8378 6.74449C11.8378 8.10815 11.3032 9.37955 10.3443 10.3378C9.38547 11.2961 8.0948 11.8304 6.74877 11.8304C5.40274 11.8304 4.1121 11.2961 3.15322 10.3378C2.19434 9.37958 1.65972 8.08969 1.65972 6.74449C1.65972 5.38082 2.19437 4.10942 3.15322 3.15113C4.11207 2.19284 5.40274 1.65854 6.74877 1.65854C8.11327 1.65854 9.38544 2.19287 10.3443 3.15113C11.303 4.10926 11.8378 5.38079 11.8378 6.74449Z" fill="black"/>
</svg>
