<svg width="17" height="21" viewBox="0 0 17 21" fill="none" xmlns="http://www.w3.org/2000/svg">
<path d="M8.49605 20.7672C13.1807 20.7672 16.992 16.956 16.992 12.2712C16.992 9.76351 15.8934 7.51307 14.1598 5.95666L15.6047 4.51181L14.6036 3.51068L13.0209 5.09336C11.709 4.26334 10.16 3.77532 8.49599 3.77532C3.81138 3.77532 0 7.58649 0 12.2713C0 16.9561 3.81138 20.7673 8.49599 20.7673L8.49605 20.7672ZM7.78805 8.02321C7.78805 7.63213 8.10496 7.31521 8.49605 7.31521C8.88713 7.31521 9.20405 7.63213 9.20405 8.02321V11.5632C9.20405 11.9543 8.88713 12.2712 8.49605 12.2712C8.10496 12.2712 7.78805 11.9543 7.78805 11.5632V8.02321Z" fill="#2E3D51"/>
<path d="M5.90008 1.416H7.78808V2.832H9.20407V1.416H11.0921C11.4832 1.416 11.8001 1.09908 11.8001 0.707999C11.8001 0.316914 11.4832 0 11.0921 0H5.90008C5.50899 0 5.19208 0.316914 5.19208 0.707999C5.19208 1.09908 5.50899 1.416 5.90008 1.416Z" fill="#2E3D51"/>
</svg>
