<svg width="216" height="216" viewBox="0 0 216 216" fill="none" xmlns="http://www.w3.org/2000/svg">
<circle cx="108" cy="108" r="108" fill="#F1C186" fill-opacity="0.658738"/>
<circle cx="108" cy="108" r="73" stroke="#FEB55B" stroke-width="10"/>
<circle cx="112.509" cy="108" r="47.3684" fill="#F1C186" fill-opacity="0.658738"/>
<path d="M156.372 156.393C183.103 129.667 183.103 86.3489 156.372 59.6233C129.642 32.8977 86.3594 32.8977 59.6261 59.6233C32.8955 86.393 32.8955 129.667 59.6261 156.393C86.3152 183.077 129.639 183.118 156.372 156.393ZM75.0247 109.442C76.6923 107.775 79.43 107.775 81.0976 109.442L95.0408 123.34L134.903 83.5712C136.613 81.9465 139.308 81.9465 140.976 83.6138C142.644 85.2811 142.644 87.9757 140.976 89.643L98.034 132.406C97.2215 133.26 96.1098 133.646 95.0408 133.646C93.929 133.646 92.8599 133.261 92.0039 132.406L75.0247 115.515C73.3571 113.845 73.3571 111.11 75.0247 109.442Z" fill="white"/>
</svg>
